<?xml version="1.0" encoding="utf-8"?>
<!-- Generator: Adobe Illustrator 16.0.0, SVG Export Plug-In . SVG Version: 6.00 Build 0)  -->
<!DOCTYPE svg PUBLIC "-//W3C//DTD SVG 1.1//EN" "http://www.w3.org/Graphics/SVG/1.1/DTD/svg11.dtd">
<svg version="1.1" id="Layer_1" xmlns="http://www.w3.org/2000/svg" xmlns:xlink="http://www.w3.org/1999/xlink" x="0px" y="0px"
	 width="1267.436px" height="1578.391px" viewBox="0 0 1267.436 1578.391" enable-background="new 0 0 1267.436 1578.391"
	 xml:space="preserve">
<text transform="matrix(1 0 0 1 548.8699 908.501)" font-family="'MyriadPro-Regular'" font-size="10">animaux</text>
<text transform="matrix(1 0 0 1 369.3396 849.835)" font-family="'MyriadPro-Regular'" font-size="10">Annélides</text>
<line fill="none" stroke="#000000" stroke-miterlimit="10" x1="415.213" y1="854" x2="539.214" y2="901.836"/>
<text transform="matrix(1 0 0 1 581.2078 368.5024)" font-family="'MyriadPro-Regular'" font-size="10">vertébrés</text>
<line fill="none" stroke="#000000" stroke-miterlimit="10" x1="595.526" y1="388.667" x2="569.859" y2="895"/>
<text transform="matrix(1 0 0 1 366.2131 684.834)" font-family="'MyriadPro-Regular'" font-size="10">arthropodes</text>
<line fill="none" stroke="#000000" stroke-miterlimit="10" x1="394.547" y1="693.667" x2="560.547" y2="895.834"/>
<text transform="matrix(1 0 0 1 828.2483 659.835)" font-family="'MyriadPro-Regular'" font-size="10">mollusques</text>
<line fill="none" stroke="#000000" stroke-miterlimit="10" x1="841.878" y1="668.5" x2="585.859" y2="895"/>
<text transform="matrix(1 0 0 1 806.136 831.834)" font-family="'MyriadPro-Regular'" font-size="10">cnidaires</text>
<line fill="none" stroke="#000000" stroke-miterlimit="10" x1="800.546" y1="835.169" x2="592.547" y2="903.169"/>
<text transform="matrix(1 0 0 1 217.0935 599.167)" font-family="'MyriadPro-Regular'" font-size="10">insectes</text>
<line fill="none" stroke="#000000" stroke-miterlimit="10" x1="252.213" y1="601.334" x2="372.547" y2="671.835"/>
<text transform="matrix(1 0 0 1 300.5461 563.8354)" font-family="'MyriadPro-Regular'" font-size="10">arthropodes</text>
<line fill="none" stroke="#000000" stroke-miterlimit="10" x1="337.88" y1="571.169" x2="384.192" y2="672"/>
<text transform="matrix(1 0 0 1 420.5789 570.833)" font-family="'MyriadPro-Regular'" font-size="10">crustacés</text>
<line fill="none" stroke="#000000" stroke-miterlimit="10" x1="440.547" y1="577.835" x2="398.547" y2="671.835"/>
<text transform="matrix(1 0 0 1 127.7424 682.168)" font-family="'MyriadPro-Regular'" font-size="10">Myriapodes</text>
<line fill="none" stroke="#000000" stroke-miterlimit="10" x1="191.546" y1="681.001" x2="356.859" y2="685.333"/>
<text transform="matrix(1 0 0 1 800.2473 544.1685)" font-family="'MyriadPro-Regular'" font-size="10">bivalves</text>
<line fill="none" stroke="#000000" stroke-miterlimit="10" x1="824.881" y1="552.334" x2="846.86" y2="644.667"/>
<text transform="matrix(1 0 0 1 926.8567 554.835)" font-family="'MyriadPro-Regular'" font-size="10">céphalopodes</text>
<line fill="none" stroke="#000000" stroke-miterlimit="10" x1="945.879" y1="560.17" x2="873.527" y2="646"/>
<text transform="matrix(1 0 0 1 946.1399 708.501)" font-family="'MyriadPro-Regular'" font-size="10">gastéropodes</text>
<line fill="none" stroke="#000000" stroke-miterlimit="10" x1="954.546" y1="698.169" x2="876.858" y2="665.333"/>
<text transform="matrix(1 0 0 1 448.9392 342.834)" font-family="'MyriadPro-Regular'" font-size="10">poissons</text>
<line fill="none" stroke="#000000" stroke-miterlimit="10" x1="503.859" y1="342" x2="564.859" y2="362"/>
<text transform="matrix(1 0 0 1 476.5193 302.8354)" font-family="'MyriadPro-Regular'" font-size="10">tortues</text>
<line fill="none" stroke="#000000" stroke-miterlimit="10" x1="515.859" y1="309" x2="576.859" y2="355"/>
<text transform="matrix(1 0 0 1 509.2849 265.833)" font-family="'MyriadPro-Regular'" font-size="10">serpents</text>
<line fill="none" stroke="#000000" stroke-miterlimit="10" x1="545.859" y1="274" x2="584.859" y2="352"/>
<text transform="matrix(1 0 0 1 562.7053 234.1665)" font-family="'MyriadPro-Regular'" font-size="10">lézards</text>
<line fill="none" stroke="#000000" stroke-miterlimit="10" x1="580.859" y1="245" x2="595.859" y2="349"/>
<text transform="matrix(1 0 0 1 618.6951 234.5005)" font-family="'MyriadPro-Regular'" font-size="10">mammifères</text>
<line fill="none" stroke="#000000" stroke-miterlimit="10" x1="637.859" y1="240" x2="608.859" y2="347"/>
<text transform="matrix(1 0 0 1 696.4231 245.833)" font-family="'MyriadPro-Regular'" font-size="10">amphibiens</text>
<line fill="none" stroke="#000000" stroke-miterlimit="10" x1="713.859" y1="254" x2="625.859" y2="354"/>
<text transform="matrix(1 0 0 1 745.302 299.1665)" font-family="'MyriadPro-Regular'" font-size="10">crocodiliens</text>
<line fill="none" stroke="#000000" stroke-miterlimit="10" x1="755.859" y1="304" x2="635.859" y2="365"/>
<text transform="matrix(1 0 0 1 551.6008 1134.167)" font-family="'MyriadPro-Regular'" font-size="10">êtres vivants</text>
<line fill="none" stroke="#000000" stroke-miterlimit="10" x1="567.859" y1="921" x2="576.859" y2="1115"/>
<text transform="matrix(1 0 0 1 854.8469 1121.168)" font-family="'MyriadPro-Regular'" font-size="10">plantes</text>
<line fill="none" stroke="#000000" stroke-miterlimit="10" x1="860.859" y1="1120" x2="624.547" y2="1131.169"/>
<line fill="none" stroke="#000000" stroke-miterlimit="10" x1="544.859" y1="1126" x2="279.859" y2="1100"/>
<text transform="matrix(1 0 0 1 235.656 1099.168)" font-family="'MyriadPro-Regular'" font-size="10">virus</text>
<line fill="none" stroke="#000000" stroke-miterlimit="10" x1="546.859" y1="1143" x2="354.859" y2="1255"/>
<text transform="matrix(1 0 0 1 290.656 1266.168)" font-family="'MyriadPro-Regular'" font-size="10">bactéries</text>
<text transform="matrix(1 0 0 1 729.636 1292.168)" font-family="'MyriadPro-Regular'" font-size="10">fungi</text>
<line fill="none" stroke="#000000" stroke-miterlimit="10" x1="742.859" y1="1277" x2="600.859" y2="1147"/>
<text transform="matrix(1 0 0 1 527.2058 1331.168)" font-family="'MyriadPro-Regular'" font-size="10">protistes</text>
<line fill="none" stroke="#000000" stroke-miterlimit="10" x1="561.859" y1="1318" x2="580.859" y2="1145"/>
<text transform="matrix(1 0 0 1 1005.8059 1025.168)" font-family="'MyriadPro-Regular'" font-size="10">plantes à fleurs</text>
<line fill="none" stroke="#000000" stroke-miterlimit="10" x1="1068.859" y1="1035" x2="1042.859" y2="1097"/>
<text transform="matrix(1 0 0 1 1125.7854 1080.168)" font-family="'MyriadPro-Regular'" font-size="10">fougères</text>
<line fill="none" stroke="#000000" stroke-miterlimit="10" x1="1136.859" y1="1087" x2="1080.859" y2="1107"/>
<text transform="matrix(1 0 0 1 1091.9661 1163.168)" font-family="'MyriadPro-Regular'" font-size="10">connifères</text>
<line fill="none" stroke="#000000" stroke-miterlimit="10" x1="1109.859" y1="1149" x2="1068.859" y2="1121"/>
<text transform="matrix(1 0 0 1 1029.8059 1213.168)" font-family="'MyriadPro-Regular'" font-size="10">algues vertes</text>
<line fill="none" stroke="#000000" stroke-miterlimit="10" x1="1080.859" y1="1196" x2="1049.859" y2="1122"/>
<text transform="matrix(1 0 0 1 980.3567 1114.168)" font-family="'MyriadPro-Regular'" font-size="10">plantes vertes</text>
<line fill="none" stroke="#000000" stroke-miterlimit="10" x1="997.859" y1="1113" x2="911.859" y2="1118"/>
<text transform="matrix(1 0 0 1 854.3469 1182.168)" font-family="'MyriadPro-Regular'" font-size="10">algues rouges</text>
<line fill="none" stroke="#000000" stroke-miterlimit="10" x1="907.859" y1="1168" x2="895.859" y2="1131"/>
<text transform="matrix(1 0 0 1 1106.3157 1048.168)" font-family="'MyriadPro-Regular'" font-size="10">mousses</text>
<line fill="none" stroke="#000000" stroke-miterlimit="10" x1="1115.859" y1="1053" x2="1061.859" y2="1096"/>
</svg>
